<svg
  xmlns="http://www.w3.org/2000/svg"
  viewBox="0 0 512 512"
  width="512"
  height="512"
  style="color-scheme: light"
>
  <metadata>
    <rdf:RDF
      xmlns:rdf="http://www.w3.org/1999/02/22-rdf-syntax-ns#"
      xmlns:dc="http://purl.org/dc/elements/1.1/"
      xmlns:cc="http://creativecommons.org/ns#"
    >
      <cc:Work rdf:about="">
        <dc:title>mdi:flask</dc:title>
        <dc:identifier>mdi:flask</dc:identifier>
        <dc:creator>
          <cc:Agent rdf:about="https://github.com/Templarian/MaterialDesign">
            <dc:title>Pictogrammers</dc:title>
          </cc:Agent>
        </dc:creator>
        <dc:source rdf:resource="https://github.com/Templarian/MaterialDesign" />
        <dc:rights>
          <cc:Agent>
            <dc:title>Apache 2.0</dc:title>
          </cc:Agent>
        </dc:rights>
        <cc:license rdf:resource="https://github.com/Templarian/MaterialDesign/blob/master/LICENSE" />
        <dc:rightsHolder>SPDX:Apache-2.0</dc:rightsHolder>
      </cc:Work>
    </rdf:RDF>
  </metadata>
  <defs>
    <clipPath id="icon-clip-icon">
      <rect width="512" height="512" rx="0" ry="0" />
    </clipPath>
  </defs>
  <g clip-path="url(#icon-clip-icon)">
    <rect width="512" height="512" fill="#0090ff" />
    <g
      transform="translate(51.2 51.2) scale(17.066666666666666)"
      style="color: #ffffff"
    >
      <path
        fill="currentColor"
        d="M6 22a3 3 0 0 1-3-3c0-.6.18-1.16.5-1.63L9 7.81V6a1 1 0 0 1-1-1V4a2 2 0 0 1 2-2h4a2 2 0 0 1 2 2v1a1 1 0 0 1-1 1v1.81l5.5 9.56c.32.47.5 1.03.5 1.63a3 3 0 0 1-3 3zm-1-3a1 1 0 0 0 1 1h12a1 1 0 0 0 1-1c0-.21-.07-.41-.18-.57l-2.29-3.96L14 17l-5.07-5.07l-3.75 6.5c-.11.16-.18.36-.18.57m8-9a1 1 0 0 0-1 1a1 1 0 0 0 1 1a1 1 0 0 0 1-1a1 1 0 0 0-1-1"
      />
    </g>
  </g>
</svg>
